<svg width="206" height="111" viewBox="0 0 206 111" fill="none" xmlns="http://www.w3.org/2000/svg">
<path d="M0 0H76.0065V16.9466H19.0016L0 0Z" fill="black"/>
<path d="M57.0054 0H76.007V49.1451L57.0054 55.0764V0Z" fill="black"/>
<path d="M18.0518 49.9925L57.0051 37.2826V55.0765L18.0518 67.7864V49.9925Z" fill="black"/>
<path d="M0 55.9237L18.0516 49.9926L19.0016 105.916L0 111V55.9237Z" fill="black"/>
<path d="M0 16.9465H19.0016V42.3664L0 47.4504V16.9465Z" fill="black"/>
<path d="M57.0054 62.8264L76.007 57.6184V87.1303L57.0054 93.2062V62.8264Z" fill="black"/>
<path d="M116.892 0H77.428V6.66051H107.026L116.892 0Z" fill="#0F6985"/>
<path d="M110.813 42.5848H116.496L112.234 47.2645L110.813 49.1363V42.5848Z" fill="#0F6985"/>
<path d="M87.5469 0H77.428V19.7065L87.5469 22.0848V0Z" fill="#0F6985"/>
<path d="M109.049 20.332L87.5467 15.0737V22.0848L107.784 27.3431L109.049 20.332Z" fill="#0F6985"/>
<path d="M116.892 22.3672L107.759 19.9816L107.262 42.5849H116.497L116.892 22.3672Z" fill="#0F6985"/>
<path d="M111.524 42.5848L110.814 49.1364L85.9519 49.1364L80.2692 42.5848L111.524 42.5848Z" fill="#0F6985"/>
<path d="M167 14L185 18.5L184 24.5L166 20L167 14Z" fill="#0F6985"/>
<path d="M159.512 0H120.049V6.66051H149.646L159.512 0Z" fill="#0F6985"/>
<path d="M153.434 42.5848H159.117L154.855 47.2645L153.434 49.1363V42.5848Z" fill="#0F6985"/>
<path d="M130.167 0H120.048V19.7065L130.167 22.0848V0Z" fill="#0F6985"/>
<path d="M151.669 20.332L130.166 15.0737V22.0848L150.404 27.3431L151.669 20.332Z" fill="#0F6985"/>
<path d="M159.512 22.3672L150.38 19.9816L149.883 42.5849H159.117L159.512 22.3672Z" fill="#0F6985"/>
<path d="M154.145 42.5848L153.434 49.1364L128.572 49.1364L122.889 42.5848L154.145 42.5848Z" fill="#0F6985"/>
<path d="M121 13L139 17.5L138 23.5L120 19L121 13Z" fill="#0F6985"/>
<path d="M203.553 0H164.09V6.66051H193.687L203.553 0Z" fill="#0F6985"/>
<path d="M197.476 42.5848H203.158L198.896 47.2645L197.476 49.1363V42.5848Z" fill="#0F6985"/>
<path d="M174.209 0H164.09V19.7065L174.209 22.0848V0Z" fill="#0F6985"/>
<path d="M195.711 20.332L174.208 15.0737V22.0848L194.446 27.3431L195.711 20.332Z" fill="#0F6985"/>
<path d="M203.553 22.3672L194.421 19.9816L193.924 42.5849H203.158L203.553 22.3672Z" fill="#0F6985"/>
<path d="M198.186 42.5848L197.476 49.1364L172.614 49.1364L166.931 42.5848L198.186 42.5848Z" fill="#0F6985"/>
<path d="M85.5 15L103.5 19.5L102.5 25.5L84.5 21L85.5 15Z" fill="#0F6985"/>
<path d="M97.6515 57.3312H102.331C103.475 57.3312 104.314 57.5782 104.847 58.0722C105.393 58.5532 105.666 59.3137 105.666 60.3537C105.666 61.0687 105.568 61.6537 105.373 62.1087C105.191 62.5637 104.892 62.9407 104.476 63.2397V63.3567C105.048 63.5517 105.49 63.8897 105.802 64.3707C106.114 64.8387 106.27 65.4107 106.27 66.0867C106.27 67.1917 105.984 68.0432 105.412 68.6412C104.853 69.2262 104.034 69.5187 102.955 69.5187H97.6515V57.3312ZM99.6015 68.9727L98.724 68.0952H102.682C103.267 68.0952 103.683 67.9327 103.93 67.6077C104.19 67.2697 104.32 66.7237 104.32 65.9697C104.32 65.2807 104.197 64.7932 103.95 64.5072C103.703 64.2082 103.287 64.0587 102.702 64.0587H99.2895V62.6937H102.156C102.741 62.6937 103.144 62.5507 103.365 62.2647C103.599 61.9787 103.716 61.4717 103.716 60.7437C103.716 59.9897 103.605 59.4697 103.384 59.1837C103.163 58.8977 102.76 58.7547 102.175 58.7547H98.724L99.6015 57.8772V68.9727ZM108.436 67.7442C108.956 67.8742 109.56 67.9847 110.249 68.0757C110.951 68.1537 111.621 68.1927 112.258 68.1927C112.583 68.1927 112.901 68.1862 113.213 68.1732C113.538 68.1602 113.954 68.1277 114.461 68.0757V64.4487L112.609 64.3122C111.738 64.2472 111.023 64.1497 110.464 64.0197C109.905 63.8767 109.463 63.6817 109.138 63.4347C108.826 63.1747 108.605 62.8367 108.475 62.4207C108.358 62.0047 108.299 61.4782 108.299 60.8412C108.299 59.9052 108.416 59.1642 108.65 58.6182C108.897 58.0592 109.294 57.6562 109.84 57.4092C110.386 57.1622 111.107 57.0387 112.004 57.0387C112.68 57.0387 113.337 57.0712 113.974 57.1362C114.611 57.1882 115.267 57.2792 115.943 57.4092L115.69 58.9497C115.118 58.8457 114.552 58.7742 113.993 58.7352C113.434 58.6832 112.81 58.6572 112.121 58.6572C111.744 58.6572 111.439 58.6637 111.205 58.6767C110.971 58.6897 110.711 58.7157 110.425 58.7547V62.4207L112.589 62.5572C113.616 62.6222 114.416 62.7782 114.988 63.0252C115.573 63.2592 115.982 63.6297 116.216 64.1367C116.463 64.6437 116.587 65.3327 116.587 66.2037C116.587 67.1007 116.444 67.8157 116.158 68.3487C115.872 68.8687 115.397 69.2457 114.734 69.4797C114.084 69.7007 113.2 69.8112 112.082 69.8112C111.393 69.8112 110.73 69.7722 110.093 69.6942C109.456 69.6292 108.806 69.5122 108.143 69.3432L108.436 67.7442ZM118.625 63.4347C118.625 62.1087 118.69 61.0297 118.82 60.1977C118.963 59.3527 119.21 58.7027 119.561 58.2477C119.912 57.7927 120.406 57.4807 121.043 57.3117C121.693 57.1297 122.532 57.0387 123.559 57.0387C124.573 57.0387 125.405 57.1297 126.055 57.3117C126.705 57.4807 127.205 57.7992 127.556 58.2672C127.907 58.7222 128.148 59.3657 128.278 60.1977C128.421 61.0297 128.492 62.1087 128.492 63.4347C128.492 64.7607 128.421 65.8397 128.278 66.6717C128.148 67.5037 127.907 68.1472 127.556 68.6022C127.205 69.0572 126.705 69.3692 126.055 69.5382C125.405 69.7202 124.573 69.8112 123.559 69.8112C122.532 69.8112 121.693 69.7202 121.043 69.5382C120.406 69.3692 119.912 69.0572 119.561 68.6022C119.21 68.1472 118.963 67.5037 118.82 66.6717C118.69 65.8397 118.625 64.7607 118.625 63.4347ZM120.712 68.1537H124.729C125.353 68.1537 125.788 68.0497 126.035 67.8417C126.282 67.6337 126.406 67.2632 126.406 66.7302V58.6962H122.369C121.745 58.6962 121.31 58.8002 121.063 59.0082C120.829 59.2162 120.712 59.5867 120.712 60.1197V68.1537ZM131.51 69.5187V57.3312H133.46V67.9002H137.945V69.5187H131.51ZM144.354 69.8112C143.405 69.8112 142.625 69.7527 142.014 69.6357C141.416 69.5187 140.948 69.3172 140.61 69.0312C140.272 68.7452 140.032 68.3422 139.889 67.8222C139.759 67.3022 139.694 66.6392 139.694 65.8332V57.3312H141.644V68.1537H144.452C145.167 68.1537 145.706 68.1277 146.07 68.0757C146.447 68.0107 146.707 67.9067 146.85 67.7637C146.993 67.6077 147.065 67.3932 147.065 67.1202V57.3312H149.015V65.8332C149.015 66.6392 148.943 67.3022 148.8 67.8222C148.67 68.3422 148.436 68.7452 148.098 69.0312C147.76 69.3172 147.286 69.5187 146.675 69.6357C146.077 69.7527 145.303 69.8112 144.354 69.8112ZM156.029 58.9497V69.5187H154.079V58.9497H150.861V57.3312H159.246V58.9497H156.029ZM163.243 64.1952V67.9002H168.606V69.5187H161.293V57.3312H168.547L168.313 58.9497H163.243V62.6547H167.865V64.1952H163.243Z" fill="black"/>
<rect x="84.5308" y="57.5726" width="2.13103" height="11.9751" fill="black"/>
<rect x="84.5308" y="57.5726" width="12.0759" height="1.56197" fill="black"/>
<rect x="94.4756" y="57.5726" width="2.13103" height="11.9751" fill="black"/>
<rect x="84.5308" y="62.2585" width="12.0759" height="1.56197" fill="black"/>
<path d="M54 39L63 35L68 50L53 55.5L54 39Z" fill="black"/>
<path d="M7 54L25.5 48L26.5 65L18.5 67.5L7 54Z" fill="black"/>
<rect x="84" y="72" width="1.97529" height="12" fill="black"/>
<rect x="84" y="72" width="11.1933" height="1.56522" fill="black"/>
<rect x="93.2183" y="72" width="1.97529" height="12" fill="black"/>
<rect x="84" y="76.6958" width="11.1933" height="1.56522" fill="black"/>
<path d="M96.9004 72H98.8757L103.046 84H101.509L96.9004 72Z" fill="black"/>
<path d="M108.094 72H106.118L101.948 84H103.485L108.094 72Z" fill="black"/>
<rect x="112.917" y="72.1475" width="1.72721" height="11.8525" fill="black"/>
<rect x="109.487" y="72" width="9.2438" height="2.05703" fill="black"/>
<rect x="119.666" y="72" width="8.33435" height="2.05664" fill="black"/>
<rect x="119.666" y="81.769" width="8.33435" height="2.05664" fill="black"/>
<rect width="10.6331" height="1.1561" transform="matrix(3.51171e-05 1 -1 8.53956e-05 128 73.1826)" fill="black"/>
<rect width="10.6331" height="1.27147" transform="matrix(3.51171e-05 1 -1 8.53956e-05 120.93 73.1826)" fill="black"/>
</svg>
