<svg width="303" height="143" viewBox="0 0 303 143" fill="none" xmlns="http://www.w3.org/2000/svg">
<path d="M72.36 134L69.66 112.76V77.66C69.66 71.54 68.4 67.01 65.88 64.07C63.42 61.13 59.22 59.66 53.28 59.66C49.86 59.66 46.89 60.17 44.37 61.19C41.85 62.21 39.9 63.68 38.52 65.6C37.2 67.46 36.54 69.74 36.54 72.44H13.32C13.32 65.84 14.91 60.47 18.09 56.33C21.27 52.13 25.83 49.07 31.77 47.15C37.77 45.17 44.94 44.18 53.28 44.18C60.84 44.18 67.44 45.41 73.08 47.87C78.72 50.27 83.1 53.99 86.22 59.03C89.34 64.07 90.9 70.52 90.9 78.38V134H72.36ZM43.74 136.52C36.24 136.52 29.97 135.23 24.93 132.65C19.95 130.01 16.2 126.56 13.68 122.3C11.16 118.04 9.9 113.42 9.9 108.44C9.9 102.92 11.34 98.3 14.22 94.58C17.16 90.8 21.3 87.98 26.64 86.12C31.98 84.2 38.28 83.24 45.54 83.24C50.28 83.24 54.75 83.6 58.95 84.32C63.21 85.04 67.44 86 71.64 87.2V99.62C68.34 98.54 64.74 97.7 60.84 97.1C56.94 96.5 53.28 96.2 49.86 96.2C44.82 96.2 40.68 97.13 37.44 98.99C34.2 100.85 32.58 104 32.58 108.44C32.58 111.68 33.9 114.47 36.54 116.81C39.18 119.15 43.38 120.32 49.14 120.32C53.52 120.32 57.24 119.36 60.3 117.44C63.36 115.52 65.67 113.12 67.23 110.24C68.85 107.36 69.66 104.48 69.66 101.6H74.7C74.7 107.9 73.53 113.72 71.19 119.06C68.85 124.34 65.37 128.57 60.75 131.75C56.19 134.93 50.52 136.52 43.74 136.52Z" fill="#0F6985"/>
<rect x="32" y="96" width="61" height="47" fill="white"/>
<path d="M52.912 130.448C51.9413 130.448 51.0507 130.176 50.24 129.632C49.44 129.088 48.8 128.277 48.32 127.2C47.84 126.112 47.6 124.752 47.6 123.12H48.752C48.752 123.899 48.928 124.581 49.28 125.168C49.632 125.755 50.0853 126.213 50.64 126.544C51.1947 126.864 51.7707 127.024 52.368 127.024C53.104 127.024 53.76 126.821 54.336 126.416C54.912 126.011 55.3653 125.445 55.696 124.72C56.0373 123.995 56.208 123.141 56.208 122.16C56.208 121.211 56.0427 120.384 55.712 119.68C55.3813 118.965 54.9227 118.411 54.336 118.016C53.76 117.621 53.0933 117.424 52.336 117.424C51.7067 117.424 51.12 117.579 50.576 117.888C50.032 118.187 49.5893 118.624 49.248 119.2C48.9173 119.765 48.752 120.453 48.752 121.264H47.6C47.6 119.696 47.824 118.373 48.272 117.296C48.7307 116.219 49.376 115.408 50.208 114.864C51.0507 114.309 52.048 114.032 53.2 114.032C54.4587 114.032 55.6 114.368 56.624 115.04C57.6587 115.701 58.48 116.645 59.088 117.872C59.7067 119.088 60.016 120.517 60.016 122.16C60.016 123.824 59.696 125.28 59.056 126.528C58.4267 127.765 57.5733 128.731 56.496 129.424C55.4187 130.107 54.224 130.448 52.912 130.448ZM44.976 130V108.048H48.752V126.16L47.44 130H44.976ZM70.4243 130.448C68.9309 130.448 67.6456 130.245 66.5683 129.84C65.5016 129.424 64.6803 128.832 64.1043 128.064C63.5283 127.285 63.2349 126.352 63.2243 125.264H66.7123C66.7443 126.032 67.0483 126.592 67.6243 126.944C68.2003 127.296 68.9843 127.472 69.9763 127.472C70.5203 127.472 71.0003 127.392 71.4163 127.232C71.8429 127.072 72.1736 126.853 72.4083 126.576C72.6429 126.299 72.7603 125.989 72.7603 125.648C72.7603 125.211 72.6003 124.869 72.2803 124.624C71.9709 124.368 71.4696 124.133 70.7763 123.92L67.3843 122.704C66.1683 122.267 65.2349 121.691 64.5843 120.976C63.9336 120.261 63.6083 119.408 63.6083 118.416C63.6083 117.104 64.2003 116.048 65.3843 115.248C66.5789 114.437 68.1736 114.032 70.1683 114.032C72.1523 114.032 73.6829 114.469 74.7603 115.344C75.8483 116.208 76.4083 117.307 76.4403 118.64H72.8883C72.8349 118.128 72.5896 117.723 72.1523 117.424C71.7149 117.125 71.0536 116.976 70.1683 116.976C69.3683 116.976 68.7389 117.141 68.2803 117.472C67.8323 117.792 67.6083 118.171 67.6083 118.608C67.6083 119.344 68.2376 119.899 69.4963 120.272L73.1763 121.648C74.3709 122.053 75.2989 122.576 75.9603 123.216C76.6216 123.856 76.9523 124.667 76.9523 125.648C76.9523 126.469 76.6749 127.248 76.1203 127.984C75.5763 128.709 74.8136 129.301 73.8323 129.76C72.8509 130.219 71.7149 130.448 70.4243 130.448ZM87.6193 130.448C86.2006 130.448 84.9153 130.144 83.7633 129.536C82.6219 128.928 81.7153 128.021 81.0433 126.816C80.3713 125.6 80.0353 124.08 80.0353 122.256C80.0353 120.4 80.3713 118.864 81.0433 117.648C81.7153 116.432 82.6219 115.525 83.7633 114.928C84.9153 114.331 86.2006 114.032 87.6193 114.032C89.0166 114.032 90.2806 114.331 91.4113 114.928C92.5526 115.525 93.4593 116.432 94.1313 117.648C94.8033 118.864 95.1393 120.4 95.1393 122.256C95.1393 124.08 94.8033 125.6 94.1313 126.816C93.4593 128.021 92.5526 128.928 91.4113 129.536C90.2806 130.144 89.0166 130.448 87.6193 130.448ZM87.4913 127.152C88.2379 127.152 88.8993 126.971 89.4753 126.608C90.0619 126.235 90.5206 125.685 90.8513 124.96C91.1926 124.235 91.3633 123.333 91.3633 122.256C91.3633 120.613 91.0379 119.376 90.3873 118.544C89.7473 117.712 88.8673 117.296 87.7473 117.296C86.9899 117.296 86.3179 117.483 85.7313 117.856C85.1446 118.219 84.6806 118.768 84.3393 119.504C84.0086 120.24 83.8433 121.157 83.8433 122.256C83.8433 123.877 84.1686 125.099 84.8193 125.92C85.4806 126.741 86.3713 127.152 87.4913 127.152ZM99.6323 130V108.048H103.408V130H99.6323ZM119.718 114.416H123.494V130H119.718V114.416ZM109.062 114.416H112.838V123.952C112.838 124.965 113.089 125.728 113.59 126.24C114.092 126.741 114.78 126.992 115.654 126.992C116.401 126.992 117.078 126.8 117.686 126.416C118.305 126.021 118.796 125.445 119.158 124.688C119.532 123.92 119.718 122.971 119.718 121.84H120.742C120.742 123.739 120.497 125.312 120.006 126.56C119.516 127.808 118.838 128.741 117.974 129.36C117.11 129.979 116.113 130.288 114.982 130.288C113.873 130.288 112.87 130.091 111.974 129.696C111.078 129.301 110.369 128.667 109.846 127.792C109.324 126.917 109.062 125.765 109.062 124.336V114.416ZM134.693 130.448C133.775 130.448 132.933 130.277 132.165 129.936C131.407 129.595 130.799 129.072 130.341 128.368C129.893 127.664 129.669 126.768 129.669 125.68V110.352H133.445V125.552C133.445 126.832 134.053 127.472 135.269 127.472C135.642 127.472 136.015 127.429 136.389 127.344C136.762 127.259 137.189 127.131 137.669 126.96L138.213 129.616C137.615 129.851 137.034 130.048 136.469 130.208C135.903 130.368 135.311 130.448 134.693 130.448ZM127.493 116.976V114.48H137.669V116.976H127.493ZM147.862 130.448C146.539 130.448 145.328 130.107 144.23 129.424C143.131 128.741 142.251 127.787 141.59 126.56C140.928 125.323 140.598 123.877 140.598 122.224C140.598 120.517 140.923 119.051 141.574 117.824C142.235 116.597 143.115 115.659 144.214 115.008C145.312 114.357 146.528 114.032 147.862 114.032C149.099 114.032 150.166 114.283 151.062 114.784C151.968 115.275 152.694 115.947 153.238 116.8C153.792 117.643 154.166 118.597 154.358 119.664C154.55 120.731 154.56 121.829 154.39 122.96H143.606V120.912H151.718L150.982 121.392C151.014 120.891 150.987 120.384 150.902 119.872C150.827 119.36 150.678 118.891 150.454 118.464C150.23 118.037 149.91 117.696 149.494 117.44C149.088 117.173 148.566 117.04 147.926 117.04C147.158 117.04 146.507 117.232 145.974 117.616C145.44 118 145.035 118.523 144.758 119.184C144.48 119.845 144.342 120.592 144.342 121.424V122.928C144.342 123.803 144.47 124.576 144.726 125.248C144.992 125.92 145.382 126.448 145.894 126.832C146.416 127.216 147.072 127.408 147.862 127.408C148.598 127.408 149.216 127.237 149.718 126.896C150.219 126.555 150.539 126.043 150.678 125.36H154.486C154.326 126.363 153.947 127.248 153.35 128.016C152.763 128.773 152 129.371 151.062 129.808C150.123 130.235 149.056 130.448 147.862 130.448ZM156.831 127.792C156.831 127.067 157.076 126.459 157.567 125.968C158.057 125.477 158.687 125.232 159.455 125.232C160.223 125.232 160.863 125.477 161.375 125.968C161.887 126.459 162.143 127.067 162.143 127.792C162.143 128.507 161.887 129.104 161.375 129.584C160.863 130.053 160.223 130.288 159.455 130.288C158.687 130.288 158.057 130.048 157.567 129.568C157.076 129.088 156.831 128.496 156.831 127.792ZM175.802 130L175.322 126.224V119.984C175.322 118.896 175.098 118.091 174.65 117.568C174.212 117.045 173.466 116.784 172.41 116.784C171.802 116.784 171.274 116.875 170.826 117.056C170.378 117.237 170.031 117.499 169.786 117.84C169.551 118.171 169.434 118.576 169.434 119.056H165.306C165.306 117.883 165.588 116.928 166.154 116.192C166.719 115.445 167.53 114.901 168.586 114.56C169.652 114.208 170.927 114.032 172.41 114.032C173.754 114.032 174.927 114.251 175.93 114.688C176.932 115.115 177.711 115.776 178.266 116.672C178.82 117.568 179.097 118.715 179.097 120.112V130H175.802ZM170.714 130.448C169.38 130.448 168.266 130.219 167.37 129.76C166.484 129.291 165.818 128.677 165.37 127.92C164.922 127.163 164.698 126.341 164.698 125.456C164.698 124.475 164.954 123.653 165.466 122.992C165.988 122.32 166.724 121.819 167.674 121.488C168.623 121.147 169.743 120.976 171.034 120.976C171.876 120.976 172.671 121.04 173.418 121.168C174.175 121.296 174.927 121.467 175.674 121.68V123.888C175.087 123.696 174.447 123.547 173.754 123.44C173.06 123.333 172.41 123.28 171.802 123.28C170.906 123.28 170.17 123.445 169.594 123.776C169.018 124.107 168.73 124.667 168.73 125.456C168.73 126.032 168.964 126.528 169.434 126.944C169.903 127.36 170.65 127.568 171.674 127.568C172.452 127.568 173.114 127.397 173.658 127.056C174.202 126.715 174.612 126.288 174.89 125.776C175.178 125.264 175.322 124.752 175.322 124.24H176.218C176.218 125.36 176.01 126.395 175.594 127.344C175.178 128.283 174.559 129.035 173.738 129.6C172.927 130.165 171.919 130.448 170.714 130.448ZM194.968 114.416H198.744V130H194.968V114.416ZM184.312 114.416H188.088V123.952C188.088 124.965 188.339 125.728 188.84 126.24C189.342 126.741 190.03 126.992 190.904 126.992C191.651 126.992 192.328 126.8 192.936 126.416C193.555 126.021 194.046 125.445 194.408 124.688C194.782 123.92 194.968 122.971 194.968 121.84H195.992C195.992 123.739 195.747 125.312 195.256 126.56C194.766 127.808 194.088 128.741 193.224 129.36C192.36 129.979 191.363 130.288 190.232 130.288C189.123 130.288 188.12 130.091 187.224 129.696C186.328 129.301 185.619 128.667 185.096 127.792C184.574 126.917 184.312 125.765 184.312 124.336V114.416ZM209.943 130.448C209.025 130.448 208.183 130.277 207.415 129.936C206.657 129.595 206.049 129.072 205.591 128.368C205.143 127.664 204.919 126.768 204.919 125.68V110.352H208.695V125.552C208.695 126.832 209.303 127.472 210.519 127.472C210.892 127.472 211.265 127.429 211.639 127.344C212.012 127.259 212.439 127.131 212.919 126.96L213.463 129.616C212.865 129.851 212.284 130.048 211.719 130.208C211.153 130.368 210.561 130.448 209.943 130.448ZM202.743 116.976V114.48H212.919V116.976H202.743ZM223.432 130.448C222.013 130.448 220.728 130.144 219.576 129.536C218.434 128.928 217.528 128.021 216.856 126.816C216.184 125.6 215.848 124.08 215.848 122.256C215.848 120.4 216.184 118.864 216.856 117.648C217.528 116.432 218.434 115.525 219.576 114.928C220.728 114.331 222.013 114.032 223.432 114.032C224.829 114.032 226.093 114.331 227.224 114.928C228.365 115.525 229.272 116.432 229.944 117.648C230.616 118.864 230.952 120.4 230.952 122.256C230.952 124.08 230.616 125.6 229.944 126.816C229.272 128.021 228.365 128.928 227.224 129.536C226.093 130.144 224.829 130.448 223.432 130.448ZM223.304 127.152C224.05 127.152 224.712 126.971 225.288 126.608C225.874 126.235 226.333 125.685 226.664 124.96C227.005 124.235 227.176 123.333 227.176 122.256C227.176 120.613 226.85 119.376 226.2 118.544C225.56 117.712 224.68 117.296 223.56 117.296C222.802 117.296 222.13 117.483 221.544 117.856C220.957 118.219 220.493 118.768 220.152 119.504C219.821 120.24 219.656 121.157 219.656 122.256C219.656 123.877 219.981 125.099 220.632 125.92C221.293 126.741 222.184 127.152 223.304 127.152Z" fill="black"/>
</svg>
